<?xml version="1.0" encoding="UTF-8" standalone="no"?>
<!DOCTYPE svg PUBLIC "-//W3C//DTD SVG 1.1//EN" "http://www.w3.org/Graphics/SVG/1.1/DTD/svg11.dtd">
<svg width="100%" height="100%" viewBox="0 0 240 240" version="1.1" xmlns="http://www.w3.org/2000/svg" xmlns:xlink="http://www.w3.org/1999/xlink" xml:space="preserve" xmlns:serif="http://www.serif.com/" style="fill-rule:evenodd;clip-rule:evenodd;stroke-linecap:round;stroke-linejoin:round;stroke-miterlimit:1.5;">
    <path d="M180,120L160,93L160,102L140,100L136,60L104,60L100,100L60,104L60,136L100,140L104,180L136,180L140,140L160,138L160,147L180,120ZM123.667,116.333L121.667,109L118.333,109L116.333,116.333L109,118.333L109,121.667L116.333,123.667L118.333,131L121.667,131L123.667,123.667L131,121.667L131,118.333L123.667,116.333Z" style="fill:rgb(255,136,0);stroke:rgb(0,119,255);stroke-width:2.08px;"/>
</svg>
