<?xml version="1.0" encoding="UTF-8" standalone="no"?>
<!DOCTYPE svg PUBLIC "-//W3C//DTD SVG 1.1//EN" "http://www.w3.org/Graphics/SVG/1.1/DTD/svg11.dtd">
<svg width="100%" height="100%" viewBox="0 0 240 240" version="1.1" xmlns="http://www.w3.org/2000/svg" xmlns:xlink="http://www.w3.org/1999/xlink" xml:space="preserve" xmlns:serif="http://www.serif.com/" style="fill-rule:evenodd;clip-rule:evenodd;stroke-linecap:round;stroke-linejoin:round;stroke-miterlimit:1.5;">
    <path d="M120,79C142.629,79 161,97.371 161,120C161,142.629 142.629,161 120,161C97.371,161 79,142.629 79,120C79,97.371 97.371,79 120,79ZM120,84C123.863,84 127,87.137 127,91C127,94.863 123.863,98 120,98C116.137,98 113,94.863 113,91C113,87.137 116.137,84 120,84ZM120,60L131,76L109,76L120,60Z" style="fill:rgb(255,136,0);stroke:rgb(9,119,246);stroke-width:2.08px;"/>
</svg>
